<mxfile host="app.diagrams.net" agent="Mozilla/5.0 (Windows NT 10.0; Win64; x64) AppleWebKit/537.36 (KHTML, like Gecko) Chrome/126.0.0.0 Safari/537.36" version="24.7.17">
  <diagram name="第 1 页" id="IhaTX1rFbmrpQwdk-6oI">
    <mxGraphModel dx="1259" dy="749" grid="0" gridSize="10" guides="1" tooltips="1" connect="1" arrows="1" fold="1" page="1" pageScale="1" pageWidth="827" pageHeight="1169" math="0" shadow="0">
      <root>
        <mxCell id="0" />
        <mxCell id="1" parent="0" />
        <mxCell id="rwP3ssxxVMxwcZm4XW7S-18" style="edgeStyle=orthogonalEdgeStyle;rounded=0;orthogonalLoop=1;jettySize=auto;html=1;exitX=0.25;exitY=1;exitDx=0;exitDy=0;entryX=0.5;entryY=0;entryDx=0;entryDy=0;" edge="1" parent="1" source="rwP3ssxxVMxwcZm4XW7S-1" target="rwP3ssxxVMxwcZm4XW7S-2">
          <mxGeometry relative="1" as="geometry" />
        </mxCell>
        <mxCell id="rwP3ssxxVMxwcZm4XW7S-19" style="edgeStyle=orthogonalEdgeStyle;rounded=0;orthogonalLoop=1;jettySize=auto;html=1;exitX=0.5;exitY=1;exitDx=0;exitDy=0;entryX=0.5;entryY=0;entryDx=0;entryDy=0;" edge="1" parent="1" source="rwP3ssxxVMxwcZm4XW7S-1" target="rwP3ssxxVMxwcZm4XW7S-3">
          <mxGeometry relative="1" as="geometry" />
        </mxCell>
        <mxCell id="rwP3ssxxVMxwcZm4XW7S-20" style="edgeStyle=orthogonalEdgeStyle;rounded=0;orthogonalLoop=1;jettySize=auto;html=1;exitX=1;exitY=0.5;exitDx=0;exitDy=0;entryX=0;entryY=0.5;entryDx=0;entryDy=0;" edge="1" parent="1" source="rwP3ssxxVMxwcZm4XW7S-1" target="rwP3ssxxVMxwcZm4XW7S-4">
          <mxGeometry relative="1" as="geometry" />
        </mxCell>
        <mxCell id="rwP3ssxxVMxwcZm4XW7S-1" value="&lt;b&gt;&lt;font style=&quot;font-size: 15px;&quot;&gt;Gateway&lt;/font&gt;&lt;/b&gt;" style="rounded=1;whiteSpace=wrap;html=1;fillColor=#f8cecc;strokeColor=#b85450;" vertex="1" parent="1">
          <mxGeometry x="320" y="290" width="120" height="60" as="geometry" />
        </mxCell>
        <mxCell id="rwP3ssxxVMxwcZm4XW7S-16" style="edgeStyle=orthogonalEdgeStyle;rounded=0;orthogonalLoop=1;jettySize=auto;html=1;exitX=0.5;exitY=1;exitDx=0;exitDy=0;entryX=0.5;entryY=0;entryDx=0;entryDy=0;" edge="1" parent="1" source="rwP3ssxxVMxwcZm4XW7S-2" target="rwP3ssxxVMxwcZm4XW7S-10">
          <mxGeometry relative="1" as="geometry" />
        </mxCell>
        <mxCell id="rwP3ssxxVMxwcZm4XW7S-2" value="&lt;b&gt;&lt;font style=&quot;font-size: 15px;&quot;&gt;Large-Screen&lt;/font&gt;&lt;/b&gt;" style="rounded=1;whiteSpace=wrap;html=1;fillColor=#f8cecc;strokeColor=#b85450;" vertex="1" parent="1">
          <mxGeometry x="150" y="430" width="120" height="60" as="geometry" />
        </mxCell>
        <mxCell id="rwP3ssxxVMxwcZm4XW7S-3" value="&lt;span style=&quot;font-size: 15px;&quot;&gt;&lt;b&gt;Bigdata-open sharing&lt;/b&gt;&lt;/span&gt;" style="rounded=1;whiteSpace=wrap;html=1;" vertex="1" parent="1">
          <mxGeometry x="320" y="430" width="120" height="60" as="geometry" />
        </mxCell>
        <mxCell id="rwP3ssxxVMxwcZm4XW7S-4" value="&lt;span style=&quot;font-size: 15px;&quot;&gt;&lt;b&gt;Redis&lt;/b&gt;&lt;/span&gt;" style="rounded=1;whiteSpace=wrap;html=1;" vertex="1" parent="1">
          <mxGeometry x="480" y="290" width="120" height="60" as="geometry" />
        </mxCell>
        <mxCell id="rwP3ssxxVMxwcZm4XW7S-9" style="edgeStyle=orthogonalEdgeStyle;rounded=0;orthogonalLoop=1;jettySize=auto;html=1;exitX=0.5;exitY=1;exitDx=0;exitDy=0;entryX=0.5;entryY=0;entryDx=0;entryDy=0;" edge="1" parent="1" source="rwP3ssxxVMxwcZm4XW7S-8" target="rwP3ssxxVMxwcZm4XW7S-1">
          <mxGeometry relative="1" as="geometry" />
        </mxCell>
        <mxCell id="rwP3ssxxVMxwcZm4XW7S-8" value="&lt;b&gt;&lt;font style=&quot;font-size: 15px;&quot;&gt;Nginx&lt;/font&gt;&lt;/b&gt;" style="rounded=1;whiteSpace=wrap;html=1;" vertex="1" parent="1">
          <mxGeometry x="320" y="180" width="120" height="60" as="geometry" />
        </mxCell>
        <mxCell id="rwP3ssxxVMxwcZm4XW7S-10" value="&lt;span style=&quot;font-size: 15px;&quot;&gt;&lt;b&gt;wisdom-agriculture-pub&lt;/b&gt;&lt;/span&gt;" style="rounded=1;whiteSpace=wrap;html=1;" vertex="1" parent="1">
          <mxGeometry x="150" y="560" width="120" height="60" as="geometry" />
        </mxCell>
        <mxCell id="rwP3ssxxVMxwcZm4XW7S-12" value="业务数据：&lt;div&gt;示范农场，视频图片等&lt;/div&gt;" style="text;html=1;align=center;verticalAlign=middle;resizable=0;points=[];autosize=1;strokeColor=none;fillColor=none;" vertex="1" parent="1">
          <mxGeometry x="10" y="440" width="140" height="40" as="geometry" />
        </mxCell>
        <mxCell id="rwP3ssxxVMxwcZm4XW7S-13" value="统计数据：&lt;div&gt;设备数量、算法调用次数等&lt;/div&gt;" style="text;html=1;align=center;verticalAlign=middle;resizable=0;points=[];autosize=1;strokeColor=none;fillColor=none;" vertex="1" parent="1">
          <mxGeometry x="295" y="495" width="170" height="40" as="geometry" />
        </mxCell>
        <mxCell id="rwP3ssxxVMxwcZm4XW7S-14" value="鉴权服务" style="text;html=1;align=center;verticalAlign=middle;resizable=0;points=[];autosize=1;strokeColor=none;fillColor=none;" vertex="1" parent="1">
          <mxGeometry x="617" y="307" width="66" height="26" as="geometry" />
        </mxCell>
        <mxCell id="rwP3ssxxVMxwcZm4XW7S-17" value="地图数据：&lt;div&gt;坐标信息，种植情况&lt;/div&gt;" style="text;html=1;align=center;verticalAlign=middle;resizable=0;points=[];autosize=1;strokeColor=none;fillColor=none;" vertex="1" parent="1">
          <mxGeometry x="5" y="570" width="130" height="40" as="geometry" />
        </mxCell>
        <mxCell id="rwP3ssxxVMxwcZm4XW7S-21" value="封装数据，保持格式和Large-Screen一致" style="text;html=1;align=center;verticalAlign=middle;whiteSpace=wrap;rounded=0;" vertex="1" parent="1">
          <mxGeometry x="380" y="380" width="120" height="30" as="geometry" />
        </mxCell>
        <mxCell id="rwP3ssxxVMxwcZm4XW7S-22" value="&lt;i&gt;&lt;b&gt;红色为笔者负责的部分&lt;/b&gt;&lt;/i&gt;" style="text;html=1;align=center;verticalAlign=middle;resizable=0;points=[];autosize=1;strokeColor=none;fillColor=none;" vertex="1" parent="1">
          <mxGeometry x="510" y="570" width="138" height="26" as="geometry" />
        </mxCell>
        <mxCell id="rwP3ssxxVMxwcZm4XW7S-24" style="edgeStyle=orthogonalEdgeStyle;rounded=0;orthogonalLoop=1;jettySize=auto;html=1;exitX=0.5;exitY=1;exitDx=0;exitDy=0;entryX=0.5;entryY=0;entryDx=0;entryDy=0;" edge="1" parent="1" source="rwP3ssxxVMxwcZm4XW7S-23" target="rwP3ssxxVMxwcZm4XW7S-8">
          <mxGeometry relative="1" as="geometry" />
        </mxCell>
        <mxCell id="rwP3ssxxVMxwcZm4XW7S-27" style="edgeStyle=orthogonalEdgeStyle;rounded=0;orthogonalLoop=1;jettySize=auto;html=1;exitX=1;exitY=0.5;exitDx=0;exitDy=0;entryX=0;entryY=0.5;entryDx=0;entryDy=0;" edge="1" parent="1" source="rwP3ssxxVMxwcZm4XW7S-23" target="rwP3ssxxVMxwcZm4XW7S-26">
          <mxGeometry relative="1" as="geometry" />
        </mxCell>
        <mxCell id="rwP3ssxxVMxwcZm4XW7S-23" value="&lt;b&gt;&lt;font style=&quot;font-size: 15px;&quot;&gt;FrontEnd&lt;/font&gt;&lt;/b&gt;" style="rounded=1;whiteSpace=wrap;html=1;" vertex="1" parent="1">
          <mxGeometry x="320" y="70" width="120" height="60" as="geometry" />
        </mxCell>
        <mxCell id="rwP3ssxxVMxwcZm4XW7S-28" style="edgeStyle=orthogonalEdgeStyle;rounded=0;orthogonalLoop=1;jettySize=auto;html=1;exitX=0.5;exitY=1;exitDx=0;exitDy=0;entryX=0.5;entryY=0;entryDx=0;entryDy=0;" edge="1" parent="1" source="rwP3ssxxVMxwcZm4XW7S-26" target="rwP3ssxxVMxwcZm4XW7S-4">
          <mxGeometry relative="1" as="geometry" />
        </mxCell>
        <mxCell id="rwP3ssxxVMxwcZm4XW7S-26" value="&lt;b&gt;&lt;font style=&quot;font-size: 15px;&quot;&gt;sa-Auth&lt;/font&gt;&lt;/b&gt;" style="rounded=1;whiteSpace=wrap;html=1;" vertex="1" parent="1">
          <mxGeometry x="480" y="70" width="120" height="60" as="geometry" />
        </mxCell>
      </root>
    </mxGraphModel>
  </diagram>
</mxfile>
